<mxfile host="app.diagrams.net" modified="2024-09-14T07:10:05.886Z" agent="Mozilla/5.0 (Windows NT 10.0; Win64; x64) AppleWebKit/537.36 (KHTML, like Gecko) Chrome/128.0.0.0 Safari/537.36" etag="V0pWXYjmHyUY8unjrClV" version="24.6.4" type="device">
  <diagram name="Page-1" id="xfQDRVrBvNcIZzvIfs06">
    <mxGraphModel dx="1275" dy="598" grid="1" gridSize="10" guides="1" tooltips="1" connect="1" arrows="1" fold="1" page="1" pageScale="1" pageWidth="1169" pageHeight="827" math="0" shadow="0">
      <root>
        <mxCell id="0" />
        <mxCell id="1" parent="0" />
        <mxCell id="mtY0_IEQQN98yn-G4eiI-1" value="Destination Recommendation Engine" style="text;strokeColor=none;fillColor=none;html=1;fontSize=24;fontStyle=1;verticalAlign=middle;align=center;" vertex="1" parent="1">
          <mxGeometry x="360" y="20" width="430" height="40" as="geometry" />
        </mxCell>
        <mxCell id="mtY0_IEQQN98yn-G4eiI-30" value="" style="shape=cylinder3;whiteSpace=wrap;html=1;boundedLbl=1;backgroundOutline=1;size=15;" vertex="1" parent="1">
          <mxGeometry x="260" y="80" width="60" height="80" as="geometry" />
        </mxCell>
        <mxCell id="mtY0_IEQQN98yn-G4eiI-31" value="&lt;div&gt;&lt;br&gt;&lt;/div&gt;" style="text;html=1;align=center;verticalAlign=middle;resizable=0;points=[];autosize=1;strokeColor=none;fillColor=none;" vertex="1" parent="1">
          <mxGeometry x="280" y="165" width="20" height="30" as="geometry" />
        </mxCell>
        <mxCell id="mtY0_IEQQN98yn-G4eiI-32" value="" style="shape=cylinder3;whiteSpace=wrap;html=1;boundedLbl=1;backgroundOutline=1;size=15;" vertex="1" parent="1">
          <mxGeometry x="260" y="250" width="60" height="80" as="geometry" />
        </mxCell>
        <mxCell id="mtY0_IEQQN98yn-G4eiI-34" value="" style="endArrow=classic;html=1;rounded=0;exitX=0.496;exitY=0.033;exitDx=0;exitDy=0;exitPerimeter=0;" edge="1" parent="1" source="mtY0_IEQQN98yn-G4eiI-31">
          <mxGeometry width="50" height="50" relative="1" as="geometry">
            <mxPoint x="700" y="360" as="sourcePoint" />
            <mxPoint x="290" y="250" as="targetPoint" />
          </mxGeometry>
        </mxCell>
        <mxCell id="mtY0_IEQQN98yn-G4eiI-35" value="&lt;font style=&quot;font-size: 9px;&quot;&gt;Preprocessed&amp;nbsp;&lt;/font&gt;&lt;div&gt;&lt;font style=&quot;font-size: 9px;&quot;&gt;Dataset&lt;/font&gt;&lt;/div&gt;" style="text;html=1;align=center;verticalAlign=middle;whiteSpace=wrap;rounded=0;" vertex="1" parent="1">
          <mxGeometry x="260" y="110" width="60" height="30" as="geometry" />
        </mxCell>
        <mxCell id="mtY0_IEQQN98yn-G4eiI-36" value="TF-IDF&lt;div&gt;vectorization&lt;/div&gt;" style="text;html=1;align=center;verticalAlign=middle;whiteSpace=wrap;rounded=0;" vertex="1" parent="1">
          <mxGeometry x="220" y="190" width="60" height="30" as="geometry" />
        </mxCell>
        <mxCell id="mtY0_IEQQN98yn-G4eiI-37" value="" style="shape=cylinder3;whiteSpace=wrap;html=1;boundedLbl=1;backgroundOutline=1;size=15;" vertex="1" parent="1">
          <mxGeometry x="260" y="404" width="60" height="80" as="geometry" />
        </mxCell>
        <mxCell id="mtY0_IEQQN98yn-G4eiI-38" value="Noralizing&lt;div&gt;ratings &amp;amp; total ratings&lt;/div&gt;" style="text;html=1;align=center;verticalAlign=middle;whiteSpace=wrap;rounded=0;" vertex="1" parent="1">
          <mxGeometry x="200" y="344" width="100" height="30" as="geometry" />
        </mxCell>
        <mxCell id="mtY0_IEQQN98yn-G4eiI-39" value="" style="endArrow=classic;html=1;rounded=0;entryX=0.5;entryY=0;entryDx=0;entryDy=0;entryPerimeter=0;exitX=0.5;exitY=1;exitDx=0;exitDy=0;exitPerimeter=0;" edge="1" parent="1" source="mtY0_IEQQN98yn-G4eiI-32" target="mtY0_IEQQN98yn-G4eiI-37">
          <mxGeometry width="50" height="50" relative="1" as="geometry">
            <mxPoint x="500" y="430" as="sourcePoint" />
            <mxPoint x="550" y="380" as="targetPoint" />
          </mxGeometry>
        </mxCell>
        <mxCell id="mtY0_IEQQN98yn-G4eiI-40" value="User" style="shape=umlActor;verticalLabelPosition=bottom;verticalAlign=top;html=1;outlineConnect=0;" vertex="1" parent="1">
          <mxGeometry x="710" y="90" width="30" height="60" as="geometry" />
        </mxCell>
        <mxCell id="mtY0_IEQQN98yn-G4eiI-43" value="User Inputs&lt;div&gt;Name,Email,Preferred Activities, Bucket List Destinations&lt;/div&gt;" style="text;html=1;align=center;verticalAlign=middle;whiteSpace=wrap;rounded=0;" vertex="1" parent="1">
          <mxGeometry x="730" y="210" width="160" height="65" as="geometry" />
        </mxCell>
        <mxCell id="mtY0_IEQQN98yn-G4eiI-44" value="" style="endArrow=none;html=1;rounded=0;" edge="1" parent="1">
          <mxGeometry width="50" height="50" relative="1" as="geometry">
            <mxPoint x="321" y="440" as="sourcePoint" />
            <mxPoint x="720" y="440" as="targetPoint" />
          </mxGeometry>
        </mxCell>
        <mxCell id="mtY0_IEQQN98yn-G4eiI-45" value="" style="endArrow=none;html=1;rounded=0;" edge="1" parent="1">
          <mxGeometry width="50" height="50" relative="1" as="geometry">
            <mxPoint x="720" y="440" as="sourcePoint" />
            <mxPoint x="720" y="180" as="targetPoint" />
          </mxGeometry>
        </mxCell>
        <mxCell id="mtY0_IEQQN98yn-G4eiI-46" value="" style="endArrow=classic;html=1;rounded=0;" edge="1" parent="1">
          <mxGeometry width="50" height="50" relative="1" as="geometry">
            <mxPoint x="520" y="440" as="sourcePoint" />
            <mxPoint x="520" y="520" as="targetPoint" />
          </mxGeometry>
        </mxCell>
        <mxCell id="mtY0_IEQQN98yn-G4eiI-47" value="" style="shape=cylinder3;whiteSpace=wrap;html=1;boundedLbl=1;backgroundOutline=1;size=15;" vertex="1" parent="1">
          <mxGeometry x="490" y="530" width="60" height="80" as="geometry" />
        </mxCell>
        <mxCell id="mtY0_IEQQN98yn-G4eiI-48" value="&lt;font size=&quot;1&quot;&gt;Modified dataset&lt;/font&gt;" style="text;html=1;align=center;verticalAlign=middle;whiteSpace=wrap;rounded=0;" vertex="1" parent="1">
          <mxGeometry x="490" y="570" width="60" height="30" as="geometry" />
        </mxCell>
        <mxCell id="mtY0_IEQQN98yn-G4eiI-49" value="Add a boost score for bucket list destinations and add boost score column" style="text;html=1;align=center;verticalAlign=middle;whiteSpace=wrap;rounded=0;" vertex="1" parent="1">
          <mxGeometry x="530" y="440" width="160" height="65" as="geometry" />
        </mxCell>
      </root>
    </mxGraphModel>
  </diagram>
</mxfile>
